<svg xmlns="http://www.w3.org/2000/svg" viewBox="0 0 1200 240" width="1200" height="240" preserveAspectRatio="none" role="img" aria-label="Generated SVG wave">
<path d="M 0 240 L 0 170.39999999999998 L 1 170.66389204655343 L 2 170.92777367510078 L 3 171.19163446804708 L 4 171.45546400862014 L 5 171.71925188128134 L 6 171.98298767213723 L 7 172.2466609693503 L 8 172.5102613635503 L 9 172.773778448245 L 10 173.0372018202311 L 11 173.300521080005 L 12 173.56372583217313 L 13 173.82680568586258 L 14 174.08975025513118 L 15 174.3525491593776 L 16 174.61519202375098 L 17 174.87766847956087 L 18 175.1399681646862 L 19 175.40208072398448 L 20 175.66399580970076 L 21 175.9257030818758 L 22 176.18719220875477 L 23 176.44845286719456 L 24 176.70947474307178 L 25 176.97024753168967 L 26 177.23076093818506 L 27 177.4910046779348 L 28 177.75096847696156 L 29 178.01064207233975 L 30 178.27001521260038 L 31 178.52907765813612 L 32 178.78781918160507 L 33 179.046229568335 L 34 179.30429861672627 L 35 179.56201613865474 L 36 179.819371959874 L 37 180.07635592041677 L 38 180.33295787499642 L 39 180.58916769340706 L 40 180.8449752609239 L 41 181.10037047870202 L 42 181.35534326417562 L 43 181.60988355145574 L 44 181.8639812917276 L 45 182.1176264536476 L 46 182.37080902373896 L 47 182.6235190067874 L 48 182.87574642623542 L 49 183.12748132457648 L 50 183.37871376374775 L 51 183.62943382552277 L 52 183.87963161190277 L 53 184.12929724550753 L 54 184.37842086996542 L 55 184.6269926503022 L 56 184.8750027733297 L 57 185.12244144803284 L 58 185.36929890595653 L 59 185.61556540159089 L 60 185.86123121275642 L 61 186.1062866409876 L 62 186.3507220119156 L 63 186.59452767565062 L 64 186.83769400716247 L 65 187.08021140666077 L 66 187.3220702999738 L 67 187.56326113892663 L 68 187.8037744017179 L 69 188.04360059329582 L 70 188.28273024573303 L 71 188.52115391860025 L 72 188.75886219933915 L 73 188.99584570363382 L 74 189.23209507578133 L 75 189.46760098906094 L 76 189.70235414610246 L 77 189.93634527925323 L 78 190.16956515094392 L 79 190.4020045540534 L 80 190.633654312272 L 81 190.86450528046393 L 82 191.09454834502822 L 83 191.32377442425857 L 84 191.55217446870193 L 85 191.77973946151556 L 86 192.00646041882325 L 87 192.23232839006977 L 88 192.4573344583744 L 89 192.6814697408828 L 90 192.90472538911783 L 91 193.12709258932875 L 92 193.34856256283925 L 93 193.56912656639403 L 94 193.78877589250385 L 95 194.00750186978945 L 96 194.22529586332374 L 97 194.4421492749728 L 98 194.6580535437352 L 99 194.8730001460802 L 100 195.08698059628384 L 101 195.29998644676445 L 102 195.51200928841575 L 103 195.723040750939 L 104 195.9330725031734 L 105 196.14209625342497 L 106 196.35010374979402 L 107 196.5570867805007 L 108 196.7630371742094 L 109 196.9679468003512 L 110 197.17180756944492 L 111 197.37461143341653 L 112 197.5763503859166 L 113 197.77701646263688 L 114 197.97660174162414 L 115 198.17509834359336 L 116 198.37249843223853 L 117 198.56879421454224 L 118 198.763977941083 L 119 198.95804190634158 L 120 199.1509784490049 L 121 199.3427799522686 L 122 199.53343884413778 L 123 199.7229475977258 L 124 199.91129873155165 L 125 200.09848480983496 L 126 200.28449844278998 L 127 200.46933228691688 L 128 200.65297904529206 L 129 200.83543146785593 L 130 201.01668235169925 L 131 201.1967245413475 L 132 201.37555092904327 L 133 201.55315445502703 L 134 201.7295281078156 L 135 201.90466492447928 L 136 202.07855799091632 L 137 202.25120044212628 L 138 202.42258546248078 L 139 202.59270628599268 L 140 202.76155619658311 L 141 202.92912852834678 L 142 203.09541666581495 L 143 203.26041404421667 L 144 203.42411414973796 L 145 203.58651051977898 L 146 203.74759674320904 L 147 203.90736646061995 L 148 204.0658133645768 L 149 204.2229311998671 L 150 204.37871376374775 L 151 204.5331549061899 L 152 204.6862485301217 L 153 204.83798859166896 L 154 204.98836910039392 L 155 205.13738411953156 L 156 205.28502776622412 L 157 205.43129421175317 L 158 205.57617768176993 L 159 205.71967245652309 L 160 205.8617728710846 L 161 206.00247331557347 L 162 206.14176823537701 L 163 206.27965213137037 L 164 206.41611956013338 L 165 206.55116513416561 L 166 206.68478352209905 L 167 206.81696944890857 L 168 206.94771769612004 L 169 207.0770231020166 L 170 207.20488056184223 L 171 207.33128502800332 L 172 207.45623151026803 L 173 207.5797150759631 L 174 207.70173085016884 L 175 207.82227401591143 L 176 207.94133981435306 L 177 208.05892354497988 L 178 208.17502056578755 L 179 208.2896262934645 L 180 208.4027362035728 L 181 208.51434583072688 L 182 208.6244507687698 L 183 208.7330466709471 L 184 208.84012925007852 L 185 208.9456942787272 L 186 209.04973758936654 L 187 209.1522550745448 L 188 209.25324268704722 L 189 209.35269644005575 L 190 209.45061240730655 L 191 209.54698672324483 L 192 209.64181558317767 L 193 209.73509524342404 L 194 209.8268220214627 L 195 209.91699229607744 L 196 210.00560250750027 L 197 210.09264915755176 L 198 210.17812880977922 L 199 210.26203808959235 L 200 210.34437368439643 L 201 210.42513234372316 L 202 210.50431087935897 L 203 210.58190616547085 L 204 210.65791513872978 L 205 210.73233479843157 L 206 210.8051622066156 L 207 210.87639448818038 L 208 210.94602883099748 L 209 211.01406248602225 L 210 211.08049276740246 L 211 211.1453170525844 L 212 211.20853278241628 L 213 211.2701374612493 L 214 211.3301286570362 L 215 211.38850400142738 L 216 211.44526118986408 L 217 211.5003979816698 L 218 211.55391220013834 L 219 211.60580173262 L 220 211.6560645306049 L 221 211.7046986098038 L 222 211.75170205022658 L 223 211.7970729962579 L 224 211.84080965673044 L 225 211.88291030499576 L 226 211.92337327899236 L 227 211.9621969813113 L 228 211.99937987925932 L 229 212.03492050491926 L 230 212.06881745520803 L 231 212.10106939193216 L 232 212.13167504184034 L 233 212.16063319667393 L 234 212.18794271321457 L 235 212.21360251332933 L 236 212.23761158401322 L 237 212.25996897742922 L 238 212.28067381094576 L 239 212.29972526717143 L 240 212.3171225939874 L 241 212.3328651045769 L 242 212.34695217745272 L 243 212.3593832564812 L 244 212.37015785090472 L 245 212.3792755353607 L 246 212.38673594989856 L 247 212.39253879999396 L 248 212.39668385656026 L 249 212.39917095595774 L 250 212.39999999999998 L 251 212.39917095595774 L 252 212.39668385656026 L 253 212.39253879999396 L 254 212.38673594989856 L 255 212.3792755353607 L 256 212.37015785090472 L 257 212.3593832564812 L 258 212.34695217745272 L 259 212.3328651045769 L 260 212.3171225939874 L 261 212.29972526717143 L 262 212.28067381094576 L 263 212.25996897742922 L 264 212.23761158401322 L 265 212.21360251332933 L 266 212.18794271321457 L 267 212.16063319667393 L 268 212.13167504184034 L 269 212.10106939193216 L 270 212.06881745520803 L 271 212.03492050491926 L 272 211.99937987925932 L 273 211.9621969813113 L 274 211.92337327899236 L 275 211.88291030499576 L 276 211.84080965673044 L 277 211.7970729962579 L 278 211.7517020502266 L 279 211.7046986098038 L 280 211.6560645306049 L 281 211.60580173262002 L 282 211.55391220013834 L 283 211.5003979816698 L 284 211.4452611898641 L 285 211.38850400142735 L 286 211.33012865703623 L 287 211.2701374612493 L 288 211.20853278241628 L 289 211.1453170525844 L 290 211.0804927674025 L 291 211.01406248602225 L 292 210.94602883099748 L 293 210.8763944881804 L 294 210.8051622066156 L 295 210.7323347984316 L 296 210.65791513872978 L 297 210.58190616547085 L 298 210.50431087935897 L 299 210.42513234372316 L 300 210.34437368439643 L 301 210.26203808959235 L 302 210.17812880977925 L 303 210.09264915755176 L 304 210.00560250750027 L 305 209.91699229607747 L 306 209.8268220214627 L 307 209.73509524342404 L 308 209.64181558317767 L 309 209.54698672324486 L 310 209.45061240730655 L 311 209.35269644005575 L 312 209.25324268704722 L 313 209.1522550745448 L 314 209.04973758936654 L 315 208.94569427872722 L 316 208.84012925007852 L 317 208.7330466709471 L 318 208.6244507687698 L 319 208.5143458307269 L 320 208.40273620357283 L 321 208.2896262934645 L 322 208.17502056578758 L 323 208.0589235449799 L 324 207.94133981435306 L 325 207.82227401591143 L 326 207.70173085016884 L 327 207.5797150759631 L 328 207.45623151026803 L 329 207.33128502800338 L 330 207.20488056184223 L 331 207.07702310201662 L 332 206.94771769612007 L 333 206.8169694489086 L 334 206.68478352209905 L 335 206.55116513416561 L 336 206.41611956013338 L 337 206.2796521313704 L 338 206.14176823537707 L 339 206.00247331557347 L 340 205.8617728710846 L 341 205.71967245652309 L 342 205.57617768176993 L 343 205.43129421175314 L 344 205.28502776622412 L 345 205.1373841195316 L 346 204.98836910039395 L 347 204.837988591669 L 348 204.6862485301217 L 349 204.5331549061899 L 350 204.37871376374778 L 351 204.2229311998671 L 352 204.06581336457677 L 353 203.90736646061995 L 354 203.74759674320907 L 355 203.58651051977898 L 356 203.424114149738 L 357 203.2604140442167 L 358 203.09541666581495 L 359 202.9291285283468 L 360 202.76155619658314 L 361 202.59270628599265 L 362 202.42258546248078 L 363 202.2512004421263 L 364 202.07855799091635 L 365 201.9046649244793 L 366 201.72952810781567 L 367 201.55315445502703 L 368 201.3755509290433 L 369 201.19672454134752 L 370 201.01668235169925 L 371 200.83543146785593 L 372 200.65297904529206 L 373 200.4693322869169 L 374 200.28449844278998 L 375 200.098484809835 L 376 199.91129873155165 L 377 199.72294759772583 L 378 199.5334388441378 L 379 199.3427799522686 L 380 199.1509784490049 L 381 198.95804190634158 L 382 198.763977941083 L 383 198.56879421454224 L 384 198.3724984322386 L 385 198.17509834359333 L 386 197.97660174162417 L 387 197.7770164626369 L 388 197.5763503859166 L 389 197.3746114334165 L 390 197.17180756944495 L 391 196.96794680035123 L 392 196.76303717420942 L 393 196.55708678050075 L 394 196.35010374979402 L 395 196.142096253425 L 396 195.93307250317343 L 397 195.723040750939 L 398 195.51200928841575 L 399 195.29998644676448 L 400 195.08698059628387 L 401 194.8730001460802 L 402 194.65805354373526 L 403 194.4421492749728 L 404 194.22529586332377 L 405 194.00750186978948 L 406 193.78877589250385 L 407 193.56912656639403 L 408 193.34856256283928 L 409 193.12709258932878 L 410 192.90472538911786 L 411 192.68146974088285 L 412 192.4573344583744 L 413 192.23232839006977 L 414 192.00646041882328 L 415 191.77973946151553 L 416 191.5521744687019 L 417 191.3237744242586 L 418 191.09454834502824 L 419 190.86450528046396 L 420 190.63365431227206 L 421 190.4020045540534 L 422 190.16956515094395 L 423 189.93634527925326 L 424 189.7023541461025 L 425 189.4676009890609 L 426 189.23209507578133 L 427 188.99584570363385 L 428 188.75886219933918 L 429 188.5211539186003 L 430 188.282730245733 L 431 188.04360059329585 L 432 187.80377440171793 L 433 187.56326113892666 L 434 187.3220702999738 L 435 187.08021140666077 L 436 186.8376940071625 L 437 186.59452767565065 L 438 186.35072201191565 L 439 186.10628664098758 L 440 185.86123121275645 L 441 185.6155654015909 L 442 185.36929890595653 L 443 185.12244144803284 L 444 184.8750027733297 L 445 184.6269926503022 L 446 184.37842086996545 L 447 184.1292972455076 L 448 183.87963161190277 L 449 183.62943382552277 L 450 183.37871376374778 L 451 183.1274813245765 L 452 182.87574642623542 L 453 182.62351900678738 L 454 182.37080902373899 L 455 182.11762645364763 L 456 181.86398129172767 L 457 181.60988355145574 L 458 181.35534326417564 L 459 181.10037047870205 L 460 180.84497526092392 L 461 180.58916769340706 L 462 180.3329578749964 L 463 180.0763559204168 L 464 179.81937195987402 L 465 179.5620161386548 L 466 179.30429861672633 L 467 179.04622956833498 L 468 178.78781918160507 L 469 178.52907765813615 L 470 178.27001521260038 L 471 178.01064207233972 L 472 177.7509684769616 L 473 177.49100467793482 L 474 177.2307609381851 L 475 176.97024753168972 L 476 176.70947474307178 L 477 176.4484528671946 L 478 176.1871922087548 L 479 175.9257030818758 L 480 175.66399580970074 L 481 175.4020807239845 L 482 175.13996816468622 L 483 174.87766847956092 L 484 174.61519202375106 L 485 174.35254915937756 L 486 174.0897502551312 L 487 173.8268056858626 L 488 173.56372583217313 L 489 173.300521080005 L 490 173.03720182023113 L 491 172.77377844824503 L 492 172.51026136355034 L 493 172.24666096935036 L 494 171.98298767213723 L 495 171.71925188128137 L 496 171.45546400862017 L 497 171.19163446804708 L 498 170.92777367510078 L 499 170.66389204655346 L 500 170.4 L 501 170.13610795344653 L 502 169.8722263248992 L 503 169.6083655319528 L 504 169.34453599137981 L 505 169.08074811871862 L 506 168.8170123278627 L 507 168.55333903064962 L 508 168.28973863644964 L 509 168.02622155175496 L 510 167.76279817976885 L 511 167.49947891999497 L 512 167.2362741678268 L 513 166.97319431413737 L 514 166.71024974486878 L 515 166.44745084062234 L 516 166.18480797624892 L 517 165.92233152043906 L 518 165.66003183531376 L 519 165.39791927601547 L 520 165.13600419029925 L 521 164.8742969181241 L 522 164.6128077912452 L 523 164.3515471328054 L 524 164.09052525692815 L 525 163.82975246831026 L 526 163.56923906181487 L 527 163.30899532206516 L 528 163.04903152303842 L 529 162.78935792766026 L 530 162.52998478739954 L 531 162.27092234186384 L 532 162.0121808183949 L 533 161.753770431665 L 534 161.49570138327365 L 535 161.23798386134519 L 536 160.98062804012596 L 537 160.7236440795832 L 538 160.4670421250036 L 539 160.21083230659286 L 540 159.95502473907607 L 541 159.69962952129794 L 542 159.44465673582434 L 543 159.1901164485442 L 544 158.93601870827231 L 545 158.68237354635235 L 546 158.429190976261 L 547 158.1764809932126 L 548 157.9242535737645 L 549 157.67251867542348 L 550 157.4212862362522 L 551 157.17056617447722 L 552 156.92036838809716 L 553 156.6707027544924 L 554 156.42157913003456 L 555 156.17300734969777 L 556 155.92499722667029 L 557 155.67755855196708 L 558 155.43070109404346 L 559 155.18443459840907 L 560 154.93876878724353 L 561 154.69371335901232 L 562 154.44927798808433 L 563 154.20547232434933 L 564 153.96230599283749 L 565 153.71978859333922 L 566 153.47792970002612 L 567 153.23673886107332 L 568 152.99622559828205 L 569 152.75639940670413 L 570 152.5172697542669 L 571 152.27884608139968 L 572 152.0411378006608 L 573 151.80415429636614 L 574 151.56790492421865 L 575 151.33239901093907 L 576 151.0976458538975 L 577 150.86365472074675 L 578 150.63043484905603 L 579 150.39799544594652 L 580 150.16634568772793 L 581 149.93549471953602 L 582 149.70545165497174 L 583 149.47622557574138 L 584 149.24782553129808 L 585 149.02026053848437 L 586 148.79353958117673 L 587 148.56767160993022 L 588 148.34266554162554 L 589 148.11853025911714 L 590 147.89527461088213 L 591 147.6729074106712 L 592 147.4514374371607 L 593 147.23087343360595 L 594 147.01122410749608 L 595 146.7924981302105 L 596 146.57470413667622 L 597 146.35785072502713 L 598 146.14194645626472 L 599 145.9269998539198 L 600 145.71301940371612 L 601 145.50001355323553 L 602 145.28799071158423 L 603 145.07695924906093 L 604 144.86692749682655 L 605 144.657903746575 L 606 144.4498962502059 L 607 144.24291321949923 L 608 144.03696282579057 L 609 143.83205319964875 L 610 143.62819243055503 L 611 143.42538856658348 L 612 143.2236496140833 L 613 143.02298353736307 L 614 142.82339825837582 L 615 142.62490165640656 L 616 142.4275015677614 L 617 142.23120578545775 L 618 142.03602205891696 L 619 141.84195809365838 L 620 141.6490215509951 L 621 141.45722004773134 L 622 141.26656115586218 L 623 141.07705240227415 L 624 140.88870126844827 L 625 140.70151519016497 L 626 140.51550155720997 L 627 140.33066771308307 L 628 140.1470209547079 L 629 139.96456853214406 L 630 139.78331764830068 L 631 139.60327545865246 L 632 139.42444907095668 L 633 139.2468455449729 L 634 139.07047189218432 L 635 138.89533507552068 L 636 138.72144200908363 L 637 138.54879955787368 L 638 138.3774145375192 L 639 138.20729371400733 L 640 138.03844380341684 L 641 137.87087147165317 L 642 137.70458333418497 L 643 137.53958595578325 L 644 137.37588585026197 L 645 137.21348948022097 L 646 137.0524032567909 L 647 136.89263353938003 L 648 136.7341866354232 L 649 136.57706880013285 L 650 136.4212862362522 L 651 136.26684509381 L 652 136.11375146987825 L 653 135.96201140833097 L 654 135.81163089960603 L 655 135.6626158804684 L 656 135.51497223377586 L 657 135.3687057882468 L 658 135.22382231823002 L 659 135.08032754347687 L 660 134.93822712891532 L 661 134.79752668442646 L 662 134.6582317646229 L 663 134.52034786862959 L 664 134.3838804398666 L 665 134.24883486583437 L 666 134.11521647790093 L 667 133.9830305510914 L 668 133.85228230387992 L 669 133.7229768979833 L 670 133.5951194381577 L 671 133.4687149719966 L 672 133.34376848973193 L 673 133.22028492403686 L 674 133.09826914983114 L 675 132.97772598408855 L 676 132.8586601856469 L 677 132.74107645502008 L 678 132.62497943421238 L 679 132.51037370653546 L 680 132.39726379642715 L 681 132.28565416927307 L 682 132.17554923123018 L 683 132.06695332905286 L 684 131.95987074992146 L 685 131.85430572127277 L 686 131.7502624106334 L 687 131.64774492545513 L 688 131.54675731295274 L 689 131.4473035599442 L 690 131.3493875926934 L 691 131.25301327675513 L 692 131.15818441682228 L 693 131.0649047565759 L 694 130.97317797853725 L 695 130.88300770392252 L 696 130.79439749249966 L 697 130.70735084244816 L 698 130.6218711902207 L 699 130.5379619104076 L 700 130.45562631560352 L 701 130.3748676562768 L 702 130.295689120641 L 703 130.2180938345291 L 704 130.14208486127018 L 705 130.06766520156836 L 706 129.99483779338436 L 707 129.92360551181957 L 708 129.85397116900248 L 709 129.7859375139777 L 710 129.7195072325975 L 711 129.65468294741555 L 712 129.59146721758367 L 713 129.52986253875065 L 714 129.46987134296376 L 715 129.41149599857258 L 716 129.35473881013584 L 717 129.29960201833015 L 718 129.2460877998616 L 719 129.19419826737996 L 720 129.14393546939505 L 721 129.09530139019614 L 722 129.04829794977337 L 723 129.00292700374206 L 724 128.9591903432695 L 725 128.9170896950042 L 726 128.8766267210076 L 727 128.83780301868865 L 728 128.80062012074063 L 729 128.76507949508073 L 730 128.73118254479192 L 731 128.6989306080678 L 732 128.66832495815962 L 733 128.63936680332603 L 734 128.6120572867854 L 735 128.58639748667062 L 736 128.56238841598673 L 737 128.54003102257073 L 738 128.5193261890542 L 739 128.50027473282853 L 740 128.48287740601256 L 741 128.46713489542304 L 742 128.45304782254723 L 743 128.44061674351875 L 744 128.42984214909524 L 745 128.42072446463925 L 746 128.4132640501014 L 747 128.407461200006 L 748 128.4033161434397 L 749 128.4008290440422 L 750 128.39999999999998 L 751 128.4008290440422 L 752 128.4033161434397 L 753 128.407461200006 L 754 128.4132640501014 L 755 128.42072446463925 L 756 128.42984214909524 L 757 128.44061674351872 L 758 128.45304782254723 L 759 128.46713489542304 L 760 128.48287740601256 L 761 128.50027473282853 L 762 128.5193261890542 L 763 128.54003102257073 L 764 128.56238841598673 L 765 128.58639748667062 L 766 128.61205728678536 L 767 128.63936680332603 L 768 128.66832495815962 L 769 128.6989306080678 L 770 128.73118254479192 L 771 128.7650794950807 L 772 128.80062012074063 L 773 128.83780301868865 L 774 128.8766267210076 L 775 128.9170896950042 L 776 128.9591903432695 L 777 129.00292700374206 L 778 129.04829794977337 L 779 129.09530139019614 L 780 129.14393546939505 L 781 129.19419826737993 L 782 129.2460877998616 L 783 129.29960201833015 L 784 129.35473881013584 L 785 129.4114959985726 L 786 129.46987134296373 L 787 129.52986253875068 L 788 129.59146721758367 L 789 129.65468294741555 L 790 129.71950723259746 L 791 129.7859375139777 L 792 129.85397116900248 L 793 129.92360551181955 L 794 129.99483779338436 L 795 130.06766520156836 L 796 130.1420848612702 L 797 130.2180938345291 L 798 130.295689120641 L 799 130.3748676562768 L 800 130.45562631560352 L 801 130.5379619104076 L 802 130.6218711902207 L 803 130.7073508424482 L 804 130.79439749249968 L 805 130.88300770392252 L 806 130.97317797853728 L 807 131.0649047565759 L 808 131.15818441682228 L 809 131.2530132767551 L 810 131.3493875926934 L 811 131.4473035599442 L 812 131.54675731295274 L 813 131.64774492545516 L 814 131.75026241063344 L 815 131.8543057212728 L 816 131.95987074992144 L 817 132.06695332905286 L 818 132.17554923123015 L 819 132.28565416927304 L 820 132.39726379642713 L 821 132.51037370653546 L 822 132.62497943421238 L 823 132.74107645502005 L 824 132.8586601856469 L 825 132.97772598408852 L 826 133.0982691498311 L 827 133.22028492403686 L 828 133.34376848973193 L 829 133.46871497199658 L 830 133.59511943815772 L 831 133.72297689798333 L 832 133.8522823038799 L 833 133.98303055109142 L 834 134.1152164779009 L 835 134.24883486583434 L 836 134.38388043986657 L 837 134.52034786862956 L 838 134.65823176462288 L 839 134.7975266844265 L 840 134.93822712891534 L 841 135.08032754347687 L 842 135.22382231823005 L 843 135.3687057882468 L 844 135.51497223377584 L 845 135.66261588046837 L 846 135.811630899606 L 847 135.96201140833097 L 848 136.11375146987822 L 849 136.26684509381005 L 850 136.42128623625217 L 851 136.57706880013288 L 852 136.73418663542316 L 853 136.89263353938 L 854 137.05240325679088 L 855 137.21348948022097 L 856 137.37588585026197 L 857 137.53958595578325 L 858 137.704583334185 L 859 137.87087147165315 L 860 138.03844380341684 L 861 138.2072937140073 L 862 138.37741453751917 L 863 138.54879955787365 L 864 138.7214420090836 L 865 138.89533507552065 L 866 139.0704718921843 L 867 139.24684554497293 L 868 139.42444907095665 L 869 139.6032754586525 L 870 139.7833176483007 L 871 139.96456853214403 L 872 140.14702095470787 L 873 140.33066771308305 L 874 140.51550155720997 L 875 140.70151519016494 L 876 140.8887012684483 L 877 141.07705240227412 L 878 141.2665611558622 L 879 141.45722004773137 L 880 141.64902155099506 L 881 141.84195809365838 L 882 142.03602205891693 L 883 142.23120578545772 L 884 142.42750156776137 L 885 142.6249016564066 L 886 142.8233982583758 L 887 143.0229835373631 L 888 143.22364961408334 L 889 143.42538856658345 L 890 143.628192430555 L 891 143.83205319964873 L 892 144.03696282579054 L 893 144.2429132194992 L 894 144.44989625020594 L 895 144.65790374657496 L 896 144.86692749682658 L 897 145.07695924906096 L 898 145.2879907115842 L 899 145.50001355323548 L 900 145.7130194037161 L 901 145.92699985391977 L 902 146.1419464562647 L 903 146.35785072502716 L 904 146.5747041366762 L 905 146.79249813021053 L 906 147.0112241074961 L 907 147.23087343360592 L 908 147.45143743716068 L 909 147.67290741067117 L 910 147.8952746108821 L 911 148.1185302591171 L 912 148.34266554162556 L 913 148.5676716099302 L 914 148.79353958117676 L 915 149.02026053848442 L 916 149.24782553129805 L 917 149.47622557574135 L 918 149.7054516549717 L 919 149.935494719536 L 920 150.1663456877279 L 921 150.39799544594655 L 922 150.630434849056 L 923 150.86365472074678 L 924 151.09764585389752 L 925 151.332399010939 L 926 151.56790492421862 L 927 151.8041542963661 L 928 152.04113780066078 L 929 152.27884608139965 L 930 152.51726975426692 L 931 152.7563994067041 L 932 152.99622559828202 L 933 153.23673886107335 L 934 153.47792970002615 L 935 153.7197885933392 L 936 153.96230599283746 L 937 154.2054723243493 L 938 154.44927798808428 L 939 154.69371335901238 L 940 154.9387687872435 L 941 155.18443459840904 L 942 155.43070109404348 L 943 155.6775585519671 L 944 155.92499722667026 L 945 156.17300734969774 L 946 156.4215791300345 L 947 156.67070275449234 L 948 156.9203683880972 L 949 157.17056617447716 L 950 157.42128623625217 L 951 157.6725186754235 L 952 157.92425357376453 L 953 158.17648099321258 L 954 158.42919097626097 L 955 158.68237354635232 L 956 158.9360187082723 L 957 159.19011644854413 L 958 159.4446567358243 L 959 159.6996295212979 L 960 159.95502473907612 L 961 160.2108323065929 L 962 160.46704212500356 L 963 160.72364407958315 L 964 160.98062804012594 L 965 161.23798386134516 L 966 161.49570138327363 L 967 161.75377043166498 L 968 162.01218081839485 L 969 162.2709223418639 L 970 162.52998478739957 L 971 162.7893579276602 L 972 163.04903152303837 L 973 163.30899532206513 L 974 163.5692390618148 L 975 163.82975246831023 L 976 164.09052525692817 L 977 164.35154713280536 L 978 164.61280779124522 L 979 164.87429691812414 L 980 165.13600419029922 L 981 165.39791927601544 L 982 165.66003183531373 L 983 165.92233152043903 L 984 166.1848079762489 L 985 166.44745084062237 L 986 166.71024974486875 L 987 166.9731943141374 L 988 167.23627416782682 L 989 167.49947891999494 L 990 167.76279817976882 L 991 168.02622155175493 L 992 168.2897386364496 L 993 168.5533390306496 L 994 168.81701232786273 L 995 169.0807481187186 L 996 169.34453599137984 L 997 169.60836553195287 L 998 169.87222632489917 L 999 170.1361079534465 L 1000 170.39999999999995 L 1001 170.66389204655343 L 1002 170.92777367510072 L 1003 171.1916344680471 L 1004 171.45546400862014 L 1005 171.71925188128142 L 1006 171.98298767213726 L 1007 172.24666096935033 L 1008 172.51026136355028 L 1009 172.773778448245 L 1010 173.0372018202311 L 1011 173.30052108000496 L 1012 173.56372583217316 L 1013 173.82680568586258 L 1014 174.08975025513124 L 1015 174.35254915937762 L 1016 174.615192023751 L 1017 174.8776684795609 L 1018 175.1399681646862 L 1019 175.40208072398448 L 1020 175.6639958097007 L 1021 175.92570308187584 L 1022 176.18719220875477 L 1023 176.44845286719462 L 1024 176.7094747430718 L 1025 176.9702475316897 L 1026 177.23076093818509 L 1027 177.4910046779348 L 1028 177.75096847696153 L 1029 178.0106420723397 L 1030 178.2700152126004 L 1031 178.5290776581361 L 1032 178.78781918160513 L 1033 179.04622956833504 L 1034 179.3042986167263 L 1035 179.56201613865477 L 1036 179.81937195987396 L 1037 180.07635592041674 L 1038 180.33295787499637 L 1039 180.5891676934071 L 1040 180.84497526092386 L 1041 181.10037047870202 L 1042 181.35534326417567 L 1043 181.60988355145577 L 1044 181.86398129172764 L 1045 182.1176264536476 L 1046 182.37080902373896 L 1047 182.62351900678735 L 1048 182.87574642623545 L 1049 183.12748132457648 L 1050 183.37871376374775 L 1051 183.62943382552282 L 1052 183.8796316119028 L 1053 184.12929724550756 L 1054 184.3784208699654 L 1055 184.62699265030218 L 1056 184.87500277332964 L 1057 185.12244144803287 L 1058 185.3692989059565 L 1059 185.61556540159089 L 1060 185.86123121275648 L 1061 186.1062866409876 L 1062 186.35072201191562 L 1063 186.59452767565062 L 1064 186.83769400716244 L 1065 187.08021140666074 L 1066 187.32207029997375 L 1067 187.56326113892663 L 1068 187.8037744017179 L 1069 188.04360059329588 L 1070 188.28273024573303 L 1071 188.52115391860025 L 1072 188.75886219933915 L 1073 188.99584570363382 L 1074 189.2320950757813 L 1075 189.46760098906088 L 1076 189.70235414610246 L 1077 189.9363452792532 L 1078 190.16956515094398 L 1079 190.40200455405343 L 1080 190.63365431227203 L 1081 190.86450528046393 L 1082 191.09454834502822 L 1083 191.32377442425854 L 1084 191.55217446870188 L 1085 191.77973946151556 L 1086 192.00646041882322 L 1087 192.23232839006982 L 1088 192.45733445837442 L 1089 192.68146974088282 L 1090 192.90472538911783 L 1091 193.12709258932875 L 1092 193.34856256283925 L 1093 193.569126566394 L 1094 193.78877589250388 L 1095 194.00750186978945 L 1096 194.2252958633238 L 1097 194.44214927497282 L 1098 194.65805354373524 L 1099 194.87300014608016 L 1100 195.08698059628384 L 1101 195.29998644676442 L 1102 195.51200928841573 L 1103 195.72304075093902 L 1104 195.9330725031734 L 1105 196.14209625342502 L 1106 196.35010374979404 L 1107 196.55708678050073 L 1108 196.7630371742094 L 1109 196.9679468003512 L 1110 197.17180756944492 L 1111 197.37461143341648 L 1112 197.57635038591664 L 1113 197.77701646263688 L 1114 197.9766017416242 L 1115 198.1750983435934 L 1116 198.37249843223856 L 1117 198.5687942145422 L 1118 198.763977941083 L 1119 198.95804190634155 L 1120 199.15097844900487 L 1121 199.34277995226861 L 1122 199.53343884413778 L 1123 199.72294759772586 L 1124 199.91129873155165 L 1125 200.09848480983499 L 1126 200.28449844278995 L 1127 200.46933228691688 L 1128 200.65297904529206 L 1129 200.8354314678559 L 1130 201.01668235169927 L 1131 201.1967245413475 L 1132 201.3755509290433 L 1133 201.55315445502706 L 1134 201.72952810781564 L 1135 201.90466492447928 L 1136 202.07855799091632 L 1137 202.25120044212628 L 1138 202.42258546248075 L 1139 202.59270628599268 L 1140 202.76155619658311 L 1141 202.92912852834684 L 1142 203.09541666581498 L 1143 203.2604140442167 L 1144 203.424114149738 L 1145 203.58651051977898 L 1146 203.74759674320904 L 1147 203.90736646061993 L 1148 204.0658133645768 L 1149 204.2229311998671 L 1150 204.37871376374775 L 1151 204.53315490618996 L 1152 204.6862485301217 L 1153 204.837988591669 L 1154 204.98836910039392 L 1155 205.13738411953156 L 1156 205.2850277662241 L 1157 205.43129421175317 L 1158 205.57617768176993 L 1159 205.71967245652309 L 1160 205.86177287108464 L 1161 206.00247331557347 L 1162 206.14176823537704 L 1163 206.27965213137037 L 1164 206.41611956013335 L 1165 206.5511651341656 L 1166 206.68478352209905 L 1167 206.81696944890857 L 1168 206.94771769612004 L 1169 207.07702310201665 L 1170 207.20488056184226 L 1171 207.33128502800335 L 1172 207.45623151026803 L 1173 207.5797150759631 L 1174 207.70173085016881 L 1175 207.82227401591143 L 1176 207.94133981435306 L 1177 208.05892354497988 L 1178 208.17502056578758 L 1179 208.2896262934645 L 1180 208.4027362035728 L 1181 208.51434583072688 L 1182 208.62445076876978 L 1183 208.7330466709471 L 1184 208.8401292500785 L 1185 208.9456942787272 L 1186 209.04973758936652 L 1187 209.15225507454483 L 1188 209.25324268704722 L 1189 209.35269644005575 L 1190 209.45061240730655 L 1191 209.54698672324483 L 1192 209.64181558317767 L 1193 209.73509524342404 L 1194 209.8268220214627 L 1195 209.91699229607744 L 1196 210.0056025075003 L 1197 210.0926491575518 L 1198 210.17812880977925 L 1199 210.26203808959235 L 1200 210.34437368439643 L 1200 240 Z" fill="#000000" fill-opacity="1" stroke="none" />
</svg>